<svg height="512" viewBox="0 0 64 64" width="512" xmlns="http://www.w3.org/2000/svg">
    <path d="M63 24c0-5.04-2.208-9.736-6.05-12.98C56.452 5.413 51.735 1 46 1S35.548 5.413 35.05 11.02A16.994 16.994 0 0 0 31 16.034V14c0-1.654-1.346-3-3-3H4c-1.654 0-3 1.346-3 3v18c0 1.654 1.346 3 3 3h13.5l5.299 7.066a2.346 2.346 0 0 0 1.868.934A2.336 2.336 0 0 0 27 40.667V35h1c1.654 0 3-1.346 3-3v-.017a17.038 17.038 0 0 0 12 8.736V43c-1.103 0-2 .897-2 2v13c0 2.757 2.243 5 5 5s5-2.243 5-5V45c0-1.103-.897-2-2-2v-2.281c7.946-1.423 14-8.37 14-16.719zm-24.359-3.641c1.072 1.304 1.992 2.438 2.359 3.801V28c0 2.757 2.243 5 5 5s5-2.243 5-5v-3.84c.367-1.363 1.287-2.497 2.359-3.801.611-.744 1.249-1.528 1.82-2.402A10.987 10.987 0 0 1 57 24c0 6.065-4.935 11-11 11s-11-4.935-11-11c0-2.162.645-4.258 1.821-6.043.57.875 1.208 1.658 1.82 2.402zM43 13h-1a1.001 1.001 0 0 1 0-2c.551 0 1 .448 1 1zm4 10h-2v-8h2zm2 2v2h-6v-2zm-.184 4c-.414 1.161-1.514 2-2.816 2s-2.402-.839-2.816-2zM46 3c4.962 0 9 4.037 9 9 0 3.211-1.62 5.183-3.186 7.09-.981 1.193-1.986 2.424-2.544 3.91H49v-8h1c1.654 0 3-1.346 3-3s-1.346-3-3-3-3 1.346-3 3v1h-2v-1c0-1.654-1.346-3-3-3s-3 1.346-3 3 1.346 3 3 3h1v8h-.27c-.557-1.487-1.563-2.717-2.544-3.91C38.62 17.183 37 15.211 37 12c0-4.963 4.038-9 9-9zm3 10v-1a1.001 1.001 0 1 1 1 1zM29 32c0 .552-.449 1-1 1h-3v7.667c0 .288-.426.431-.6.2L18.5 33H4c-.551 0-1-.448-1-1V14c0-.552.449-1 1-1h24c.551 0 1 .448 1 1zm2-8c0-3.893 1.495-7.552 4.138-10.326.131.845.35 1.613.639 2.315A12.987 12.987 0 0 0 33 24c0 7.168 5.832 13 13 13s13-5.832 13-13c0-2.915-.989-5.73-2.778-8.011.289-.701.508-1.47.639-2.315A14.91 14.91 0 0 1 61 24c0 8.271-6.729 15-15 15s-15-6.729-15-15zm18 34c0 1.654-1.346 3-3 3s-3-1.346-3-3V45h6zm-2-15h-2v-2.051c.333.02.662.051 1 .051s.667-.031 1-.051z"/>
    <path d="M21 29h-2V15h-6v14h-2v-6H5v8h22V19h-6zM9 29H7v-4h2zm6-12h2v12h-2zm8 4h2v8h-2z"/>
</svg>
