<svg height="512" viewBox="0 0 512.069 512.069" width="512" xmlns="http://www.w3.org/2000/svg">
    <path d="M241.034 65.687v167.111l-104.972-52.486L.034 247.764v264.305h512V65.653L376.007 0zm-90 416.382h-30v-30h30zm30 0v-60h-90v60h-61V266.374l105.972-52.548 105.028 52.514v215.729zm210 0h-30v-30h30zm91-397.584v397.584h-61v-60h-90v60h-60V84.451l105.027-51.113z"/>
    <path d="M301.034 122.069h30v30h-30zM421.034 122.069h30v30h-30zM361.034 122.069h30v30h-30zM301.034 182.069h30v30h-30zM361.034 182.069h30v30h-30zM421.034 182.069h30v30h-30zM301.034 242.069h30v30h-30zM421.034 242.069h30v30h-30zM361.034 242.069h30v30h-30zM301.034 302.069h30v30h-30zM361.034 302.069h30v30h-30zM421.034 302.069h30v30h-30zM301.034 362.069h30v30h-30zM421.034 362.069h30v30h-30zM361.034 362.069h30v30h-30zM61.034 302.069h30v30h-30zM121.034 302.069h30v30h-30zM181.034 302.069h30v30h-30zM61.034 362.069h30v30h-30zM181.034 362.069h30v30h-30zM121.034 362.069h30v30h-30z"/>
</svg>
