<svg xmlns="http://www.w3.org/2000/svg" viewBox="0 0 511.999 511.999" style="enable-background:new 0 0 511.999 511.999" xml:space="preserve">
    <path d="m508.66 241.062-59.122-57.352V68.554c0-6.072-4.924-10.997-10.997-10.997h-62.68c-6.072 0-10.997 4.924-10.997 10.997v33.016L263.656 3.389a10.996 10.996 0 0 0-15.314 0L3.339 241.062a10.995 10.995 0 0 0 .169 15.947L47.22 297.64c4.304 4.002 10.99 3.911 15.187-.203l13.872-13.603v216.884c0 6.072 4.924 10.997 10.997 10.997h337.445c6.072 0 10.997-4.924 10.997-10.997V283.834l13.872 13.603a10.968 10.968 0 0 0 7.701 3.145c2.684 0 5.373-.979 7.486-2.943l43.712-40.631a10.99 10.99 0 0 0 3.508-7.937 10.993 10.993 0 0 0-3.337-8.009zM386.858 79.551h40.687v82.824l-40.687-39.47V79.551zM266.995 474.795v-70.307c0-6.072-4.924-10.997-10.997-10.997-6.072 0-10.997 4.924-10.997 10.997v69.804L234.5 464.59V344.867h.001c2.307.544 4.635.992 6.979 1.357l.408.066a94.185 94.185 0 0 0 4.845.601c1.415.139 2.835.25 4.261.325.18.01.361.014.541.023a95.95 95.95 0 0 0 4.464.113c1.483 0 2.961-.044 4.435-.112.198-.01.397-.015.595-.026a94.19 94.19 0 0 0 4.226-.322c.216-.021.431-.044.647-.066a91.902 91.902 0 0 0 4.227-.539l.4-.065a91.86 91.86 0 0 0 4.175-.748l.227-.044a87.123 87.123 0 0 0 2.823-.627v28c0 1.758.422 3.49 1.229 5.052l9.913 19.168-9.913 19.168a11.287 11.287 0 0 0-1.229 5.12c0 1.757.422 3.49 1.229 5.052l9.913 19.168-9.018 17.436-12.883 11.828zm-39.158-155.201-.019-.007c-25.6-10.973-43.582-36.418-43.582-65.988 0-39.569 32.191-71.761 71.761-71.761 39.57 0 71.761 32.191 71.761 71.761.001 29.481-17.874 54.856-43.349 65.885l-.027.01a71.294 71.294 0 0 1-10.197 3.526c-.052.013-.102.031-.154.044a68.81 68.81 0 0 1-2.783.65c-.26.056-.514.125-.774.179-.544.112-1.095.196-1.643.296a71.883 71.883 0 0 1-12.832 1.171c-1.235 0-2.461-.032-3.681-.094-.107-.005-.211-.019-.318-.024a71.45 71.45 0 0 1-13.946-2.154 71.388 71.388 0 0 1-10.217-3.494zm185.889 170.128H283.258l12.929-11.87a10.982 10.982 0 0 0 2.33-3.048l12.527-24.219a10.99 10.99 0 0 0 0-10.104l-9.931-19.202 9.931-19.202a10.99 10.99 0 0 0 0-10.104l-11.297-21.842v-33.645c29.712-15.745 50.008-46.983 50.008-82.885 0-51.697-42.057-93.754-93.754-93.754s-93.754 42.057-93.754 93.754c0 36.005 20.413 67.315 50.264 83.017v132.783c0 3.067 1.281 5.995 3.534 8.077l13.252 12.245H98.273V262.268l157.726-154.665 157.727 154.665v227.454zm43.768-215.338L263.698 84.351c-4.277-4.194-11.121-4.194-15.397 0L54.505 274.384l-27.541-25.6L255.999 26.602l112.2 108.843.005.007 62.68 60.804.001.001 54.148 52.527-27.539 25.6z"/>
    <path d="M266.774 366.735a10.484 10.484 0 0 0-.627-2.056 11.132 11.132 0 0 0-1.012-1.893 10.419 10.419 0 0 0-1.364-1.672 10.883 10.883 0 0 0-3.573-2.387 11.112 11.112 0 0 0-2.055-.627 10.827 10.827 0 0 0-4.289 0c-.704.143-1.397.352-2.056.627-.671.275-1.307.616-1.901 1.012-.606.407-1.167.858-1.673 1.375a10.527 10.527 0 0 0-1.364 1.672 10.405 10.405 0 0 0-1.012 1.893c-.275.67-.495 1.351-.626 2.056-.144.714-.22 1.441-.22 2.155 0 .714.076 1.441.22 2.143.131.705.351 1.398.626 2.056.275.661.617 1.309 1.012 1.902.396.605.858 1.166 1.364 1.672a10.49 10.49 0 0 0 1.673 1.364 11.145 11.145 0 0 0 6.101 1.859c.714 0 1.441-.077 2.144-.22a11.042 11.042 0 0 0 2.055-.627 10.812 10.812 0 0 0 1.902-1.012 10.475 10.475 0 0 0 1.671-1.364c.507-.506.969-1.067 1.364-1.672a11.29 11.29 0 0 0 1.012-1.902c.275-.66.495-1.351.627-2.056.143-.704.22-1.43.22-2.143a10.944 10.944 0 0 0-.219-2.155zM271.482 216.057h-30.966c-6.072 0-10.997 4.924-10.997 10.997 0 6.072 4.924 10.997 10.997 10.997h30.966c6.072 0 10.997-4.924 10.997-10.997 0-6.072-4.924-10.997-10.997-10.997z"/>
</svg>
